<svg width="24" height="24" viewBox="0 0 24 24" fill="none" xmlns="http://www.w3.org/2000/svg">
<path d="M12.0004 2C12.8651 2.00005 13.6938 2.16873 14.4545 2.47461C13.9706 2.96131 13.5872 3.54745 13.3354 4.19922C12.9119 4.07035 12.4637 4.00004 12.0004 4C9.66348 4 7.69992 5.75744 7.44183 8.08008L7.18988 10.3457C7.18675 10.3739 7.18493 10.3908 7.18304 10.4072C7.03798 11.6713 6.62669 12.891 5.97601 13.9844C5.96763 13.9985 5.95915 14.0131 5.94476 14.0371L5.36664 15C5.0932 15.4557 4.92804 15.7334 4.8305 15.9404C4.82572 15.9506 4.82189 15.9607 4.81781 15.9697C4.82811 15.971 4.83929 15.9744 4.85101 15.9756C5.07873 15.9985 5.40179 16 5.93304 16H18.0678C18.5991 16 18.9222 15.9985 19.1498 15.9756C19.1612 15.9744 19.172 15.9709 19.1821 15.9697C19.178 15.9608 19.175 15.9505 19.1703 15.9404C19.0728 15.7334 18.9077 15.4557 18.6342 15L18.0561 14.0371C18.0417 14.0131 18.0332 13.9984 18.0248 13.9844C17.4544 13.0259 17.0676 11.9705 16.8832 10.873C17.2424 10.955 17.6164 11 18.0004 11C18.3172 11 18.6267 10.9685 18.9272 10.9121C19.0887 11.6323 19.3645 12.3239 19.7436 12.9609C19.7498 12.9713 19.7558 12.9825 19.7709 13.0078L20.3491 13.9707C20.6001 14.389 20.8293 14.7682 20.9799 15.0879C21.128 15.4023 21.2855 15.8286 21.2094 16.3115C21.1341 16.7889 20.8884 17.2229 20.518 17.5332C20.1431 17.847 19.6959 17.931 19.35 17.9658C18.9985 18.0012 18.5556 18 18.0678 18H5.93304C5.44531 18 5.00241 18.0012 4.65081 17.9658C4.305 17.931 3.85787 17.847 3.48285 17.5332C3.11228 17.2229 2.86678 16.7889 2.79144 16.3115C2.71526 15.8285 2.87284 15.4024 3.02093 15.0879C3.17153 14.7682 3.40078 14.3891 3.65179 13.9707L4.22992 13.0078C4.2451 12.9825 4.25106 12.9714 4.25726 12.9609C4.76326 12.1106 5.08385 11.1627 5.19671 10.1797C5.1981 10.1676 5.19929 10.1545 5.20257 10.125L5.45453 7.85938C5.82516 4.52387 8.64438 2 12.0004 2ZM16.9828 4.2793C17.8285 5.25673 18.3941 6.48959 18.5463 7.85937L18.5522 7.91992C18.3767 7.9703 18.1921 7.99996 18.0004 8C17.3135 8 16.7072 7.65355 16.3471 7.12598C16.2657 6.88312 16.1649 6.64986 16.0463 6.42773C16.0163 6.2899 16.0004 6.14684 16.0004 6C16.0004 5.26713 16.3949 4.62758 16.9828 4.2793Z" fill="#242424"/>
<path d="M9.10222 17.6647C9.27315 18.6215 9.64978 19.467 10.1737 20.0701C10.6976 20.6731 11.3396 21 12 21C12.6604 21 13.3024 20.6731 13.8263 20.0701C14.3502 19.467 14.7269 18.6215 14.8978 17.6647" stroke="#242424" stroke-width="2" stroke-linecap="round"/>
<circle cx="18" cy="6" r="2.5" fill="#E25C5C" stroke="#E25C5C"/>
</svg>
