<svg width="24" height="24" viewBox="0 0 24 24" fill="none" xmlns="http://www.w3.org/2000/svg">
<path d="M11.9998 2C15.3559 2 18.1751 4.52386 18.5457 7.85937L18.7977 10.125C18.8009 10.1546 18.8021 10.1676 18.8035 10.1797C18.9164 11.1627 19.2369 12.1106 19.743 12.9609C19.7492 12.9714 19.7551 12.9824 19.7703 13.0078L20.3484 13.9707C20.5995 14.3891 20.8287 14.7681 20.9793 15.0879C21.1274 15.4024 21.285 15.8285 21.2088 16.3115C21.1335 16.7889 20.888 17.2229 20.5174 17.5332C20.1423 17.8471 19.6953 17.931 19.3494 17.9658C18.9978 18.0012 18.555 18 18.0672 18H5.93242C5.44458 18 5.00181 18.0012 4.6502 17.9658C4.30434 17.931 3.85723 17.8471 3.48223 17.5332C3.11171 17.2229 2.86615 16.7889 2.79082 16.3115C2.71466 15.8285 2.87224 15.4023 3.02031 15.0879C3.1709 14.7682 3.40014 14.3891 3.65117 13.9707L4.2293 13.0078C4.24452 12.9824 4.25044 12.9714 4.25664 12.9609C4.7627 12.1106 5.08322 11.1628 5.1961 10.1797C5.19748 10.1676 5.19867 10.1546 5.20196 10.125L5.45391 7.85938C5.82452 4.52391 8.64383 2.0001 11.9998 2ZM11.9998 4C9.66293 4.0001 7.69928 5.75748 7.44121 8.08008L7.18926 10.3457C7.18613 10.3739 7.18431 10.3907 7.18242 10.4072C7.03735 11.6714 6.62613 12.8909 5.97539 13.9844C5.96701 13.9985 5.95857 14.0131 5.94414 14.0371L5.36602 15C5.09254 15.4558 4.9274 15.7334 4.82988 15.9404C4.82509 15.9506 4.82129 15.9606 4.81719 15.9697C4.82756 15.9709 4.83859 15.9744 4.85039 15.9756C5.07811 15.9985 5.40097 16 5.93242 16H18.0672C18.5986 16 18.9215 15.9985 19.1492 15.9756C19.1607 15.9744 19.1714 15.9709 19.1814 15.9697C19.1774 15.9607 19.1745 15.9505 19.1697 15.9404C19.0722 15.7334 18.9071 15.4558 18.6336 15L18.0555 14.0371C18.041 14.0131 18.0326 13.9985 18.0242 13.9844C17.3735 12.8909 16.9623 11.6713 16.8172 10.4072C16.8153 10.3908 16.8135 10.3739 16.8104 10.3457L16.5584 8.08008C16.3003 5.75742 14.3368 4 11.9998 4Z" fill="#242424"/>
<path d="M9.10222 17.6647C9.27315 18.6215 9.64978 19.467 10.1737 20.0701C10.6976 20.6731 11.3396 21 12 21C12.6604 21 13.3024 20.6731 13.8263 20.0701C14.3502 19.467 14.7269 18.6215 14.8978 17.6647" stroke="#242424" stroke-width="2" stroke-linecap="round"/>
</svg>
